<?xml version="1.0" encoding="UTF-8"?>
<svg version="1.1" viewBox="0 0 2048 1536" width="1280" height="1280" xmlns="http://www.w3.org/2000/svg">
<path transform="translate(0)" d="m0 0h2048v1536h-2048z" fill="#FEFEFE"/>
<path transform="translate(993,245)" d="m0 0h5l-3 2-13 5-13 7-11 8-3 1v2l-8 7-3 1-2 4-4 2-2 4-8 10-8 13-6 16-3 12-3 21-2 27-2 63v56l1 3h22l5 1h14l7-3 1-3h15l7 3 8 16 4 5 9 6 15 6 12 3 7 1h17l17-4 16-6 9-6 6-7 7-15 4-2 17-1-1-101-2-36-3-18-4-12-6-10-6-7-13-9-15-6-20-4h-29l-20 4-13 5-10 6-10 9-7 11-3 3 3-9 2-9 7-9 8-7 15-7 18-5 20-2h11l18 2 19 5 18 8 13 7 10 8 3 5 2 3 1 5v9l-1-2h-2l-1-2 2 12 2 14 1 16 1 37 1 92h24l3 1h16l7-2 1-4h14l5 5v13l-3 25-3 31-1 10h93l84 2 49 3 12 2v1l-49-2h-22l-16-1-50-1h-58l-19-1-8 1h-4v1l13 1 99 2 68 2 25 2 15 2 16 4 8 6 7 11 4 14 3 17 3 12 1-6h1l1 6v289l-1 79-1 49-2 48-3 31-4 16-5 8-8 5-18 4-39 3-23 1-96 2-117 1h-241l-119-1-95-2-38-2-23-2-19-4-7-5-5-8-4-15-3-27-2-41-1-8v-85l-9 3h-14l-7-2-2-7h-1l-1 13-12 3-20 4-2 1-5 25-3 13-41 14-48 15-11 1-16-2-5-4-6-19-6-27-3-26-1-15v-36l2-25 5-30 3-9 1-1 15-1 29-1h69l7 1 3 7 6 23v2l13-2h15l7 1 2 2v5l10-2 16-2h8l-1-174v-58l1-34 2-22 3-15 4-10 7-9 8-5 21-4 44-3 73-2h125l-7-63v-17l2-3 11-2h5v-57l1-38 2-34 3-26 4-19 6-16 7-13 8-11 12-13 12-10 11-7 16-8z" fill="#E6E5EE"/>
<path transform="translate(993,245)" d="m0 0h5l-3 2-13 5-13 7-11 8-3 1v2l-8 7-3 1-2 4-4 2-2 4-8 10-8 13-6 16-3 12-3 21-2 27-2 63v56l1 3h22l5 1h14l7-3 1-3h15l7 3 8 16 4 5 9 6 15 6 12 3 7 1h17l17-4 16-6 9-6 6-7 7-15 4-2 17-1-1-101-2-36-3-18-4-12-6-10-6-7-13-9-15-6-20-4h-29l-20 4-13 5-10 6-10 9-7 11-3 3 3-9 2-9 7-9 8-7 15-7 18-5 20-2h11l18 2 19 5 18 8 13 7 10 8 3 5 2 3 1 5v9l-1-2h-2l-1-2 2 12 2 14 1 16 1 37 1 92h24l3 1h16l7-2 1-4h14l5 5v13l-3 25-3 31-2 8h-2l-1 17-6 42-5 22-6 18-9 17-9 11-13 11-13 8-15 7-14 5-21 3-11 1h-63l-19-2-21-5-17-7-16-10-11-9-10-11-9-16-7-20-5-20-6-39-7-58-3-26v-17l2-3 11-2h5v-57l1-38 2-34 3-26 4-19 6-16 7-13 8-11 12-13 12-10 11-7 16-8z" fill="#4A46ED"/>
<path transform="translate(809,984)" d="m0 0h428l38 1 16 2 7 4 6 7 3 8 1 5 1 28-1 17-3 12-6 8-5 4-13 3-42 1h-420l-38-1-14-2-7-4-6-7-3-7-2-18v-24l2-16 3-10 10-7 5-2 11-1z" fill="#E6E5EE"/>
<path transform="translate(597,842)" d="m0 0h1v81h7v1l12-1 64-9 15-2 18-1 4 3v2h-2v2l4 2v2h3l-1 3 8-1 2 3v7l-7 8-8 7-10 9-7 5-9 3h-13l-4-3-5 1-6 12-5 2-14-1-5-7v-2h-2l-2 10-4 10-5 2h-10l-7-2-4-5-3 2-2 15-1 48h-1v-46l-9 3h-14l-7-2-2-7h-1l-1 13-12 3-20 4-2 1-5 25-3 13-41 14-48 15-11 1-16-2-5-4-6-19-6-27-3-26-1-15v-36l2-25 5-30 3-9 1-1 15-1 29-1h69l7 1 3 7 6 23v2l13-2h15l7 1 2 2v5l10-2 24-3z" fill="#9B9CC5"/>
<path transform="translate(453,493)" d="m0 0 3 3 17 53 13 37 10 10 6 4 13 36 19 54 4 9 4 5-1 5-23 12-26 13-23 11-40 20-23 11-17 8-5-5-22-61-17-47v-12l4-19-2-9-14-41-10-31v-4l33-16 23-11 34-16 37-18z" fill="#E6E5EE"/>
<path transform="translate(1025,299)" d="m0 0h29l20 4 17 7 13 10 8 10 5 11 4 17 2 21 1 23v101l-17 2-4 1-2 6-6 12-7 7-14 7-16 5-10 2h-17l-12-2-18-6-9-5-7-6-6-10-4-9-6-2-15-2v-81l1-33 2-27 4-20 7-14 11-12 11-7 12-5 16-4z" fill="#FEFEFE"/>
<path transform="translate(809,834)" d="m0 0h440l32 1 7 2 3 4 2 10v34l-2 10-4 5-2 1-9 1-70 1h-343l-80-1-10-1-6-5-2-10v-37l2-8 5-5 4-1z" fill="#E6E5EE"/>
<path transform="translate(1021,239)" d="m0 0h36l25 5 18 6 19 9 17 12 9 8 7 8 12 17 7 15 5 16 4 23 2 21 2 44 1 80 4 1h-5l-1 5-7 2h-16l-3-1h-24l-1-1-1-92-1-37-2-24-3-15v-5l2 4h2v-7l-2-7-3-4-5-5-8-6-25-12-17-5-11-2-12-1h-11l-20 2-21 6-15 8-7 7-4 6-3 12-2 6-4 17-2 17-1 17-1 33-1 81h8v1h-8l-1 4-7 3h-14l-5-1h-22l-2-4v-56l2-63 3-35 3-17 5-17 7-14 8-11 7-9 5-4 10-10h2v-2l14-10 17-9 10-4 4-2z" fill="#9B9CC5"/>
<path transform="translate(1659,910)" d="m0 0h7l6 4 10 10 6 9 3 11 5 36 11 93 1 10v25l-4 6-5 4-9 1-26-4-73-15-55-12-17-5-6-4-14-14-3-6 1-7 4-6 19-19 8-7 10-9 11-9 14-13 11-9 13-12 11-9 13-12 11-9 11-10 14-11 9-6z" fill="#F4BF0B"/>
<path transform="translate(1590,451)" d="m0 0h15l9 2 3 11 7 5 9-1h13l10 9 3 4-1 6-1 2v9l8 16 11 3 3 16v5l-9 6-3 10-1 13 4 6 2 2-1 6-6 11-3 3-16 2-7 6-2 4v11l-6 4-13 4-12 1-5-3-4-7-8-1-2 6-4 2-13 1-10-4-7-4-1-5v-8l-4-6-7-7-13-1-3-3-6-12v-6l5-6v-14l-2-9-4-4-5-4 1-13 3-8 11-3 6-10 2-5v-7l-2-4v-5l9-9 5-3 5-1h12l3 3 6-1 3-4 2-8 4-2z" fill="#9C9DC5"/>
<path transform="translate(820,818)" d="m0 0h384l59 1 20 1 10 2 8 6 5 8 2 8 1 10v28l-2 16-5 10-7 6-10 3-11 1h-12l-3 1h-55v1h-337-3v-2h-65l-22-1-12-2-8-6-5-8-2-7-1-8v-36l2-12 4-8 5-6 7-3 16-2zm-11 16-33 1-7 3-3 5-1 6v37l2 10 6 5 10 1 80 1h343l70-1 9-1 5-4 2-5 1-7v-34l-2-10-5-5-5-1-32-1z" fill="#EEB004"/>
<path transform="translate(809,984)" d="m0 0h428l38 1 16 2 7 4 6 7 3 8 1 5 1 28-1 17-3 12-6 8-5 4-13 3-42 1h-420l-38-1-14-2-7-4-6-7-3-7-2-18v-24l2-16 3-10 10-7 5-2 11-1zm-14 16-20 1-6 3-3 6-1 9v29l2 13 5 5 3 1 26 1h458l24-1 5-3 3-4 1-3 1-13v-22l-2-15-5-5-3-1-20-1z" fill="#F4BF0B"/>
<path transform="translate(486,588)" d="m0 0 4 2 8 7 5 5 19 54 15 42 5 6-1 5-23 12-26 13-23 11-40 20-23 11-17 8-5-5-22-61-17-47v-12l4-19 2-1 11 29 1 5h9l37 4h10l2-4h2v-3h2l2-5 8-6 3-1h13l4 1 8-10 11-16 13-18 5-8-6-17z" fill="#F4BF0B"/>
<path transform="translate(1656,935)" d="m0 0 5 1 3 11 9 73 5 47v11l-3 6-4 2h-12l-36-7-86-18-13-4-1-1 1-7 14-14 8-7 11-10 11-9 13-12 11-9 14-13 11-9 12-11 11-9 12-9z" fill="#E5E4EE"/>
<path transform="translate(799,857)" d="m0 0h447l5 1 2 7h4v9l-3 6-5 2h-451l-5-3-2-8 2-10 3-3z" fill="#4A46ED"/>
<path transform="translate(883,585)" d="m0 0h1l6 45 5 27 6 20 6 15 8 13 11 12 14 10 14 8 16 6 25 5 12 1h63l17-1v1h-5v3l-11 5-17 5-20 3-13 1h-55l-20-2-19-4-16-6-15-8-12-9-8-7-9-12-8-16-6-19-6-31-7-54-2-5-56-1v-1l31-1h70z" fill="#9C9DC5"/>
<path transform="translate(802,991)" d="m0 0h282l143 1 48 1 12 1 8 4 5 8 1 4 1 16v14l-1 15-2 7-3 1v2h-2v2l-8 1 5-7 1-17v-22l-2-15-4-4-3-1-20-1h-468l-20 1-6 3-1 2h-3l1-4h-2l-2 4-4 2-1 5v40l3 12 6 7 4 2 8 1 26 1 70 1h391l26-1 3 1v2l-13 3-42 1h-420l-38-1-14-2-7-4-6-7-3-7-2-18v-24l2-16 1-3h2l2-5 6-5-1 4 5-4z" fill="#EDAE04"/>
<path transform="translate(820,818)" d="m0 0h384l59 1 20 1 10 2 8 6 5 8 2 8 1 10v28l-2 16-5 10-7 6h-2v-2l-6 1-35 1h-205l-101-1-20-1-1-2-9-1-84-1-26-1-26 2v1h-10l-6-3-6-8-2-10v-34l2-1 1 19 1-13v-9l2-9 2-2-1 19-1 6h2v-16h1l1 37 2 10 5 4 10 1 80 1h343l70-1 11-1v2l7-2 5-8 1-5v-40l-2-9-5-6-4-2-9-1-32-1-81-1h-25l-89-2-8-1 1-2-1-2h-213l-39 1-25 2-10 5 2-4 7-3 16-2z" fill="#F4BF0B"/>
<path transform="translate(1701,608)" d="m0 0h19l4 3 1 6h11l6 3 3 5v12l3 9 6 4 1 4v9l-4 5-1 4v13l1 2v7l-3 6-3 2-6 2-3 5-2 11-5 4-3 1h-16l-2 1h-12l-10-4-3-13-2-3-8-2-4-6-1-7 2-4v-14l-3-5-2-3 1-10 3-4 3-1 4-10v-12l4-6 3-3 12-1 4-9z" fill="#9C9DC5"/>
<path transform="translate(1066,253)" d="m0 0 18 2 15 4 15 6 14 9 13 11 9 11 9 14 5 12 4 15 3 25 2 41 1 104-2 3h-9l-7-2-2-91-1-26-2-26-3-20-6-18-7-13-8-10-10-10-16-10-14-6-21-6-13-2h-39l3-3 11-3 6-1 19-1h9l-1-7z" fill="#E7E6EF"/>
<path transform="translate(1280,968)" d="m0 0h2v2l7 2 9 5 5-1 3 3 1 2 4 1 6 8 4 7v6l2-3 1 9-2-1 1 6v10h2l1-2v5l-2-1-1 15h2l1-2-1 4-2 2v3l2 1-1 3h-2l-2 7 1 3-10 13-10 6-6-2 5-5 5-8 2-10 1-27-1-18-3-11-6-8-7-4-16-2-38-1-384-1v-1l35-1 17-1 2-1 24-1 53-2 9-1 1-1 50-2 6-2 159-2h29z" fill="#F4EDF1"/>
<path transform="translate(1591,492)" d="m0 0 10 2 9 5 7 6 8 12 4 12 1 6v13l-3 13-7 13-8 8-10 5-9-1-12-6-9-9-6-10-4-14v-19l4-13 7-11 9-8z" fill="#FEFEFE"/>
<path transform="translate(1290,801)" d="m0 0 1 2 6 2 3 2v2h2l2 7 4 2 6 5 6 10 3 11 1 11v22l-2 14 1 3-3 6-8 10-9 6h-3l1 5-5-1-3-6 8-6 5-10 2-16v-28l-2-15-5-10-8-6-10-2-20-1-59-1-191-1v-1l50-1 17-4 13-2 9-3 4 1 17-3 33-2 44-1h47l21 1 9-1 7 3 2-2h4z" fill="#F4EDF1"/>
<path transform="translate(350,639)" d="m0 0 2 2 11 30v2h9l37 4h11l-3 10-18 50-4 11-5 15-2 12v6l3 2-3 1-4-5-22-61-17-47v-12l4-19z" fill="#F4BF0B"/>
<path transform="translate(1035,290)" d="m0 0h11l18 2 19 5 18 8 13 7 10 8 3 5 2 3 1 5v9l-1-2h-2l-1-2 2 12 2 14 1 16 1 37v92l-3-3-13-2v-1h8l-1-101-2-36-3-18-4-12-6-10-6-7-13-9-15-6-20-4h-29l-20 4-13 5-10 6-10 9-7 11-3 3 3-9 2-9 7-9 8-7 15-7 18-5z" fill="#6764C8"/>
<path transform="translate(387,936)" d="m0 0h1l1 23 3 5 8 4 5 1 4 4 2 11 3 36 4 26 6 26 2 8v4h-14l-8-2-3-3-6-19-6-27-3-26-1-15v-36l1-17z" fill="#6662C7"/>
<path transform="translate(940,325)" d="m0 0h2l-3 21 5-1 1 1v27l-1 35-1 68v33l-1 1-16-1-1-1v-82l1-31 2-29 3-20 6-18z" fill="#E7E6EF"/>
<path transform="translate(1497,1053)" d="m0 0h1l2 8 4 3 21 6 41 9 93 19 23 3 6 4 9 8 5 2-3 3-9 1-26-4-73-15-55-12-17-5-6-4-14-14-3-6z" fill="#D17F05"/>
<path transform="translate(993,245)" d="m0 0h5l-3 2-13 5-13 7-11 8-3 1v2l-8 7-3 1-2 4-4 2-2 4-8 10-8 13-6 16-3 12-3 21-2 27-2 63v59l-9-4-6-1v-1h5v-57l1-38 2-34 3-26 4-19 6-16 7-13 8-11 12-13 12-10 11-7 16-8z" fill="#6864C7"/>
<path transform="translate(973,514)" d="m0 0 3 3 5 12 11 18 5 4h7l3-1 17 1 9 2 1 2-3 14-3 19-4 15-5 9-3 3-5 1-3-1-9-13-5-13-5-20-5-26-3-9-3-4 1 3v7l-3-3-3-14z" fill="#9C9DC5"/>
<path transform="translate(971,272)" d="m0 0h2l-2 4-14 11-10 10-9 12-5 8-6 15-3 9-4 24-2 20-2 39-2 83-5 1-2-1v-91l1-31 2-26 4-24 5-16 7-14 8-11 8-8 13-8 12-5z" fill="#E7E6EF"/>
<path transform="translate(1650,996)" d="m0 0h5l1 4h2v3h2l2 5-1 5-17 12-18 13-16 11-10 7-7 1-11-16-12-18v-4l13-9 4-1 10 16 4 6 6-3 16-12 3-3 3-1 1-2 3-1 1-2 7-4z" fill="#4C48EB"/>
<path transform="translate(1092,262)" d="m0 0 10 1 14 6 14 10 11 10 8 10 9 16 5 14 3 17 2 19 1 19v63l-2 2-2-23-3-45-3-24-3-12v18l-2-3-6-24-5-12-6-11-8-10-12-12-15-10-4-4 9 2 12 6-9-8-15-10-3-3z" fill="#fff"/>
<path transform="translate(823,829)" d="m0 0h90l338 1v1h26v1l12 2 5 6 2 7v40l-2 8h-2v-44l-2-10-4-4-5-1-32-1-392-1-74-1 1-2h37z" fill="#D88B06"/>
<path transform="translate(946,995)" d="m0 0h11l9 2v-2h6v1h43v-1h30v1l40 1v-2h28l1 1h143v1h21v2h9l6 5 2 5 1 6v35l-2 11h-2v-39l-2-15-4-4-3-1-20-1-449-1-31-1 2-2h19v-1h140z" fill="#E4A108"/>
<path transform="translate(1095,535)" d="m0 0 1 3-5 24-5 23-6 14-6 7h-7l-3-1-6-11-3-7-6-26-1-4 4-3 6-2h8l4 2 3 3 8-2v-2h2v-2l5-5z" fill="#6561C8"/>
<path transform="translate(1578,488)" d="m0 0h16l11 4 9 6 7 7 8 14 3 11 1 14-2 12-5 12-4 6-1-3 6-13 2-10v-13l-3-13-5-10-8-10-9-6-10-3-9 2-9 7-7 9-5 13-1 4v19l4 14 7 11 7 7 12 6 6 2-2 2h-12l-8-4-6-5v-2h-2l-7-10-6-13-5-16-1-7v-15l5-10h2l2-4 7-6 10-5 4-1h7v-2l-2 1h-8z" fill="#6763C8"/>
<path transform="translate(1654,912)" d="m0 0 4 1-2 4-8 6-10 7-12 12-8 7-11 10-8 7-3 3h-2v2l-8 7-13 11-14 13-8 7-10 9-8 7-10 9-5 5-6 7-1 8 5 5 5 3-1 3-2 1 3 3-8-1-11-4-4-5-1-7 4-6 19-19 8-7 10-9 11-9 14-13 11-9 13-12 11-9 13-12 11-9 11-10 14-11z" fill="#EEB104"/>
<path transform="translate(1710,637)" d="m0 0 4 1 4 5 4 10 1 5v15l-4 13-5 8-6 5-6-7-4-11-1-6v-9l3-14 5-10z" fill="#FDFDFE"/>
<path transform="translate(876,1014)" d="m0 0 4 1 5 7 7-8 5 1 2 2-1 6-3 7h12l2 2v5l-2 2-11 2 4 8v4l-4 2-4-1-5-8-3 1-4 7-3 2-6-1-1-1 1-7 4-7h-11l-3-2v-5l5-3 2-1h6l-4-8 1-5z" fill="#4D4AEA"/>
<path transform="translate(1085,1014)" d="m0 0h4l5 8 4-5 5-3 3 1 1 2h2l-2 6-4 7h-3l3 3 1-2h12l1 2 1 4-1 2-5 1h-7l4 8-1 5-2 2-5-1-5-8h-2l-6 9-6 1-3-3 1-5 4-8h-12l-2-2 1-6 7-3 1-4h2l-2-4 1-4z" fill="#4B47EB"/>
<path transform="translate(1583,455)" d="m0 0 13 1 1 8v-2-7l3 1 2 8v5l12 6 9 2 4-1 1-4 4 2 6 7v3h-7l-1 5 5 5 7 16 2 2-6-13v-5h2l8 18 1 4-1 1 9 2 1 2-1 10-3-2-9-2-4-2-8-16-5-11-3-7-10-3-20-11-5-6-1-11-6-2z" fill="#E6E5EE"/>
<path transform="translate(806,1014)" d="m0 0 4 1 5 7 4-5 3-3 6 1 2 4-5 11 12 1v2l2 1-2 5-12 1 5 9-1 4-2 2-5-1-5-8-3 1-5 8-5 1-4-3 1-5 4-8h-9l-5-2 1-6 2-2h12v-2h-2l-4-7 1-4z" fill="#504CE8"/>
<path transform="translate(1014,1014)" d="m0 0h5l5 8 4-4 1-2 6-2 2 3h2l-1 5-5 8h-2v3h3v-2h12l1 2 1 4-1 2-5 1h-7l4 8v5l-3 2-5-1-6-9-7 10-5 1-4-3 3-9 2-3-11-1-3-3 1-5 3-2h11l-2-6h-2l-2-5z" fill="#4D49EA"/>
<path transform="translate(1225,1014)" d="m0 0 4 1 4 6v2h2l2-5 4-4 4 1 1 2h2l-1 5-5 9-1 1 2 1 1-2h11v3h2l-1 5-11 2 4 8-1 4-3 2-4-1-5-7v-2l-5 5-4 5-5 1-3-2 1-7 3-6-11-1-2-1v-6l2-2 12-1-3-6v-7z" fill="#4B47EB"/>
<path transform="translate(944,1014)" d="m0 0h5l5 7v2h2l2-5 5-4 5 1 1 5-6 11-1 1 2 1 1-3 12 1 1 6-1 2-4 1h-8l4 8v5l-3 2-4-1-6-9-8 10-5-1-1-1 1-7 2-6-11-1-1-1 1-8 9-2-3-6v-5z" fill="#4C48EB"/>
<path transform="translate(1155,1014)" d="m0 0 4 1 5 7 4-5 3-3h4l2 3 2 2-6 11h-3l3 3 1-2h11l2 3-1 5-11 2 4 8v4l-4 2-4-1-5-8-3 1-5 8-6-1-1-1 1-7 3-7h-11l-2-2 1-6 4-1h7l-3-9 1-5z" fill="#4C48EA"/>
<path transform="translate(435,955)" d="m0 0h10l1 2-1 43-3 5-5 5h-7l-1-1-1-14v-36l2-3z" fill="#6561C8"/>
<path transform="translate(946,995)" d="m0 0h11l9 2v-2h6v1h43v-1h30v1l40 1v-2h28l1 1 14 1-1 2h-210l-103 1-31-1 2-2h19v-1h140z" fill="#D07D05"/>
<path transform="translate(440,526)" d="m0 0 2 1 1 6-8 5-25 12-45 22-8 4h-5l-1-7 15-7 30-15 23-11z" fill="#4B47EC"/>
<path transform="translate(1139,376)" d="m0 0 2 1 1 5 1 14 1 29v82l-4 1-2-1-1-66v-62z" fill="#E7E6EF"/>
<path transform="translate(1638,948)" d="m0 0 2 1-6 8-3 2-1-1-7 8-8 8-8 6-5 5-13 11-5 4h-2l-1 3-11 9-5 5-12 11-12 13-4 7 1 6 10 6 3 2-5 1-20-5-3-2 1-7 14-14 8-7 11-10 11-9 13-12 11-9 14-13 11-9 12-11z" fill="#F4EDF1"/>
<path transform="translate(763,840)" d="m0 0 1 3-1 16-1 6h2v-16h1l1 37 2 10 5 4 10 1 71 1-3 2h-53l9 1-1 2-26 2v1h-10l-6-3-6-8-2-10v-34l2-1 1 19 1-13v-9l2-9z" fill="#F5C00C"/>
<path transform="translate(1657,936)" d="m0 0h4l3 11 9 73 5 47v11l-3 6-2-3-2-26-12-101-2-12z" fill="#A2A3C8"/>
<path transform="translate(1545,467)" d="m0 0h2v2l-8 7-1 5 2 9-4 10-6 10-3 2h-9l-1 15 5 5 4 5 2 9 1 13-4 8-3 3 2 6 4 7h12l8 7 7 8 1 3v13l5 2 7 4v3l-6-1-9-5-1-5v-8l-4-6-7-7-13-1-3-3-6-12v-6l5-6v-14l-2-9-4-4-5-4 1-13 3-8 11-3 6-10 2-5v-7l-2-4v-5l9-9z" fill="#6E6BC7"/>
<path transform="translate(416,893)" d="m0 0h9l-3 6-5 27-3 25-1 12h-1l-1-11h-1l-4-28v-17l3-10 4-3z" fill="#E7E6EF"/>
<path transform="translate(491,606)" d="m0 0 2 2-13 18-24 34-5-1h-13l-6 3-5 5-2 3h-2l-1 5-3 3h-10l-9-1-2-2 16-8 15-7h3v-5l6-2h15l9-8 7-9 8-11 11-16z" fill="#F4EDF1"/>
<path transform="translate(796,858)" d="m0 0 2 1-3 3-1 10 3 7 2 1 450 1v1h-451l-5-3-2-8 2-10z" fill="#6561C7"/>
<path transform="translate(1667,653)" d="m0 0h2l-1 11 5 2 7 1 3 4-6 1-2 9v5l1 2-5 5 5 5 2 3 11 3h5l3 5v2l-5 1v2l-3 1-1 4 17 4 4 2-1 1h-12l-10-4-3-13-2-3-8-2-4-6-1-7 2-4v-14l-3-5-2-3 1-10z" fill="#6A66C7"/>
<path transform="translate(346,672)" d="m0 0 4 2 4 9 14 39 17 47v2h2l1-5 1 4-1 11 3 2-3 1-4-5-22-61-16-44z" fill="#D48505"/>
<path transform="translate(989,597)" d="m0 0h2l8 20 6 7 12 6 2 3v13l-1 1-7-1-5-5-6-8-6-15-4-13z" fill="#9C9DC5"/>
<path transform="translate(1716,634)" d="m0 0h7l8 7 1 6-2 5 4 2v6l-7 9-7 19-2 2 1-6 3-11v-15l-3-11-5-8-1-4z" fill="#6864C7"/>
<path transform="translate(454,572)" d="m0 0h3v4l-24 12-23 11-41 20-3-1 2-4 53-26 29-14z" fill="#F4BF0B"/>
<path transform="translate(456,581)" d="m0 0h4l-1 4-30 15-23 11-33 16h-4l1-4 41-20 39-19z" fill="#F4BF0B"/>
<path transform="translate(461,589)" d="m0 0 2 1v3l-40 20-48 23-3-1 2-4 29-14 41-20z" fill="#F5C00C"/>
<path transform="translate(448,555)" d="m0 0 4 1-1 3-41 20-39 19-6 3h-5l2-4 30-15 23-11z" fill="#F5C00C"/>
<path transform="translate(450,564)" d="m0 0h4l-1 4-47 23-35 17-4 2-4-1 1-3 26-13 23-11z" fill="#F5C00C"/>
<path transform="translate(1576,610)" d="m0 0h17l5 2 7 9-1 4 19-6 11-2 2-1-1 4-13 5-16 2-5-3-4-7-8-1-2 6-4 2-13 1 2-5 5-6 1-1-3-1z" fill="#6864C7"/>
<path transform="translate(1520,570)" d="m0 0 3 4 5 9h12l8 7 7 8 1 3v13l5 2 7 4v3l-6-1-9-5-1-5v-8l-4-6-7-7-13-1-3-3-6-12z" fill="#6C68C8"/>
<path transform="translate(1578,488)" d="m0 0h16l11 4 9 6 7 7 8 14 3 11 1 14-2 12-5 12-4 6-1-3 6-13 2-10v-13l-3-13-5-10-8-10-9-6-10-3h-6l-2-2 1-2-2 1h-8z" fill="#6A67C7"/>
<path transform="translate(1544,535)" d="m0 0 2 3 2 15 5 13 8 11v3l9 6 10 4 15 2-3 2h-14l-12-5-8-6-7-7-8-16-2-11 2 2 5 13 6 9-8-16-2-7z" fill="#E5E4EE"/>
<path transform="translate(1654,928)" d="m0 0h8l3 5 4 31 2 20v10h-2l-6-47-2-11-7 1-5 3-3-1v-5l5-5z" fill="#E9A904"/>
<path transform="translate(1639,591)" d="m0 0 4 1 1 3h2v2l-7 6-2 4-1 8-1-3-7-1-6-3 1-5 7-7 5-3z" fill="#6864C7"/>
<path transform="translate(1023,283)" d="m0 0 3 1-1 3-30 9-15 7h-3l1-5 10-6 13-5 14-3z" fill="#E7E6EF"/>
<path transform="translate(349,673)" d="m0 0 4 2 8 20 9 26 15 42 1 3h2l-1 5h-2l-9-24-11-31-15-41z" fill="#EEB004"/>
<path transform="translate(429,660)" d="m0 0h2v3l-5 5-1 2h-2l-1 5-3 3h-10l-9-1-2-2 16-8z" fill="#F1EBF0"/>
<path transform="translate(1280,833)" d="m0 0 9 1 5 6 2 7v40l-2 8h-2v-44l-2-10-4-4-11-2v-1z" fill="#D58705"/>
<path transform="translate(1283,999)" d="m0 0 6 1 5 6 2 9v35l-2 11h-2v-39l-2-15-4-4-6-2z" fill="#D88B05"/>
<path transform="translate(1687,1097)" d="m0 0 5 1 10 9 4 2-1 4-2 2-6-1-5-4-5-5-5-3-17-2v-1h15z" fill="#EEB004"/>
<path transform="translate(575,991)" d="m0 0h5l3 4 2 10h-10l-7-2-1-9z" fill="#6864C7"/>
<path transform="translate(1667,653)" d="m0 0h2l-1 11 5 2 7 1 3 4-6 1-2 9v5l1 2-5 4h-2l-1 2 1-5 1-2v-14l-3-5-2-3 1-10z" fill="#6B68C7"/>
<path transform="translate(1695,636)" d="m0 0h1v7l-4 9-5 1-1 10-4 2-5-2-1-7 3-2 4-1 3-2h3l3-9-4-2v-3h6z" fill="#F4F3F7"/>
<path transform="translate(463,598)" d="m0 0h3l-1 4-34 17h-4l1-4z" fill="#F5C00C"/>
<path transform="translate(428,656)" d="m0 0 4 1v3l-20 9-14 7h-6l-1-2 23-11z" fill="#9C9DC5"/>
<path transform="translate(1545,467)" d="m0 0h2v2l-8 7-1 5 2 9-4 10-6 10-3 2h-9l-2 6-1-3 2-4 11-3 6-10 2-5v-7l-2-4v-5l9-9z" fill="#6F6CC7"/>
<path transform="translate(1547,468)" d="m0 0h2l4 4 2 1h11l4 2-8 5h-11l-7-5 2-6z" fill="#E7E6EF"/>
<path transform="translate(1553,464)" d="m0 0h12l2 3-3 5-1 2h-8l-6-4v-2l-3-1 2-2z" fill="#9E9FC6"/>
<path transform="translate(1571,1024)" d="m0 0 4 5 18 27 5 1v1h-7l-8-9-7-11-7-10v-3z" fill="#9C9DC5"/>
<path transform="translate(798,903)" d="m0 0h56l16 1-2 2-72-1z" fill="#EEB004"/>
<path transform="translate(1741,662)" d="m0 0h1v15l-4 12-4 6-7 6h-6l5-4 5-5 6-11 3-18z" fill="#EEEEF4"/>
<path transform="translate(644,963)" d="m0 0 4 1 4 8v4l2 1h-10l-5-7 1-5z" fill="#6864C7"/>
<path transform="translate(1648,562)" d="m0 0 2 3 3 9 4 2-1 3-4-3-2 4-4 1-4-6v-8h3l2 2z" fill="#E3E2ED"/>
<path transform="translate(746,1056)" d="m0 0 1 2 4 2 4 10 6 7 6 3 9 2v1l-13-1-6-3-7-7-3-8z" fill="#A1A2C8"/>
<path transform="translate(746,893)" d="m0 0 5 1 4 11 5 6 10 5v1h-7l-7-4-7-8-3-9z" fill="#A1A2C8"/>
<path transform="translate(1669,539)" d="m0 0h7l-7 7-2 4-1-2h-9l-2-1 1-4 6-3z" fill="#6864C7"/>
<path transform="translate(430,761)" d="m0 0h3v2l-29 14-13 6-4-2v-6l4 4 6-2 19-9z" fill="#EFB305"/>
<path transform="translate(999,625)" d="m0 0 4 2 10 8 1 2v6l-5-1-6-7z" fill="#EBEBF2"/>
<path transform="translate(1635,616)" d="m0 0 1 3-8 4-10 3-12 1-2-2 19-6 11-2z" fill="#6B68C7"/>
<path transform="translate(1668,582)" d="m0 0 1 3-5 8-2 2-4 1h-11l5-5 10-4h4z" fill="#6966C7"/>
<path transform="translate(611,980)" d="m0 0h6l3 4 1 5h-11l-4-5v-2z" fill="#6763C7"/>
<path transform="translate(366,668)" d="m0 0h6l2 2 12 1 4 2-1 2-17-1-9-1v-2h2z" fill="#F5EEF2"/>
<path transform="translate(1015,995)" d="m0 0h25v2h-3v2h-23z" fill="#D17F04"/>
<path transform="translate(491,606)" d="m0 0 2 2-13 18-7 10-1-4 16-23z" fill="#EFEAF0"/>
<path transform="translate(376,580)" d="m0 0h4l-2 4-17 8h-3v-3z" fill="#6967DC"/>
<path transform="translate(1074,1030)" d="m0 0 3 1-5 2 2 5 13 1-2 6-3 4 1 4 3 3-5-1-2-2 1-5 4-8h-12l-2-2 1-6z" fill="#8F8FC6"/>
<path transform="translate(428,658)" d="m0 0 3 1-8 5-16 8-9 4-4-1 16-8z" fill="#5350E6"/>
<path transform="translate(1544,535)" d="m0 0 2 3 2 15 5 13 2 5h-2l-7-14-2-7z" fill="#F0F0F5"/>
<path transform="translate(486,588)" d="m0 0 4 2 8 7-6 7-2-3-4-11z" fill="#F5C00C"/>
<path transform="translate(1212,1031)" d="m0 0 1 2 1 5 12 1-1 5-2 4h-2l1 5 3 3-5-1-1-1 1-7 3-6-11-1-2-1v-6z" fill="#9191C5"/>
<path transform="translate(351,642)" d="m0 0 2 2 10 27-1 2-3-3-8-22z" fill="#D58605"/>
<path transform="translate(1715,717)" d="m0 0h7v5l2 2h-12v-4z" fill="#6561C8"/>
<path transform="translate(1677,627)" d="m0 0 4 3 5 2-3 3-2 1-4 9h-1v-17z" fill="#6A67C7"/>
<path transform="translate(1e3 1031)" d="m0 0 2 1-1 3 1 3 13 1-2 6h-2l-1 7 4 4-5-1-2-4 5-10-11-1-3-3 1-5z" fill="#9292C5"/>
<path transform="translate(1087,1014)" d="m0 0h2l5 8 4-5 4-2-7 11-3 1-6-9z" fill="#9797C7"/>
<path transform="translate(1156,1014)" d="m0 0 4 2 4 6 4-5 3-2-2 5-6 7h-2l-5-9z" fill="#999AC5"/>
<path transform="translate(863,1031)" d="m0 0 1 3 1 4 11 1-1 7h-2v7l4 3-6-1-1-1 1-7 4-7h-11l-3-2v-5z" fill="#9393C5"/>
<path transform="translate(1226,1014)" d="m0 0 4 2 3 5v2h2l2-5 4-3-2 4-4 6-4 2-5-9z" fill="#9697C7"/>
<path transform="translate(1715,610)" d="m0 0 3 1-3 9-5 4h-2l2-4 3-5-4-1v-2z" fill="#ECEBF2"/>
<path transform="translate(878,1014)" d="m0 0 5 5 2 3 7-8 2 1-6 7-3 4-4-1-4-7z" fill="#9495C6"/>
<path transform="translate(1017,1014)" d="m0 0 3 1 4 7 4-4 1-2 2 1-6 9-3 1-5-8z" fill="#9798C6"/>
<path transform="translate(948,1014)" d="m0 0 4 4 2 5h2l2-5 3-2-2 5-4 5-3 1-5-8z" fill="#9697C7"/>
<path transform="translate(1679,654)" d="m0 0h3l2 8 2-3-1 5h-4l-4-1-1-7z" fill="#E7E6EF"/>
<path transform="translate(900,1038)" d="m0 0h7l-4 2-7 1 4 8-1 4v-3l-4-1-3-5 2-5z" fill="#9393C6"/>
<path transform="translate(1655,929)" d="m0 0 5 1 3 6v2h-2v-2h-9v-4h2z" fill="#D28105"/>
<path transform="translate(1638,494)" d="m0 0h2l7 16-1 4v-2h-2l-6-13z" fill="#F1F0F5"/>
<path transform="translate(1248,1038)" d="m0 0h8l-4 2-7 1 4 8-1 3v-2l-4-1-3-5 2-5z" fill="#9393C6"/>
<path transform="translate(1179,1038)" d="m0 0h7l-4 2-7 1 4 8-1 4v-3l-4-1-3-5 2-5z" fill="#9393C6"/>
<path transform="translate(1654,928)" d="m0 0h5l-4 2-1 2h-2v4l2 1-5 3-3-1v-5l5-5z" fill="#EEB104"/>
<path transform="translate(796,858)" d="m0 0 2 1-3 3-1 10 3 7 9 2v1h-8l-5-3-2-8 2-10z" fill="#9A9AC5"/>
<path transform="translate(1659,518)" d="m0 0h2l2 8v12l-2-1-2-9z" fill="#EFEFF4"/>
<path transform="translate(752,893)" d="m0 0 2 4 5 9 4 5h-4l-6-8-2-5z" fill="#DB9006"/>
<path transform="translate(1733,689)" d="m0 0h4l-2 5-8 7h-6l5-4 5-5z" fill="#EDECF3"/>
<path transform="translate(1109,1038)" d="m0 0h8v1l-5 1h-7l4 8v2h-4l-3-5 1-6z" fill="#9494C5"/>
<path transform="translate(1039,1038)" d="m0 0h8v1l-5 1h-7l4 8v2h-4l-3-5v-3h2v-3z" fill="#9394C6"/>
<path transform="translate(970,1038)" d="m0 0h7l-4 2h-8l4 8v2l-4-1-3-5 2-5z" fill="#9393C6"/>
<path transform="translate(1630,552)" d="m0 0 1 4-5 12-4 6-1-3 6-13 2-5z" fill="#7674C7"/>
<path transform="translate(447,547)" d="m0 0v3l-20 10h-3v-2z" fill="#4B47EC"/>
<path transform="translate(1579,455)" d="m0 0h1l-1 9-4 4-10 4-3-1 4-4h6l5-5z" fill="#716EC7"/>
<path transform="translate(1082,1015)" d="m0 0 2 1-1 1v8l2 5h-7l1-5h2l-2-4 1-4z" fill="#9696C5"/>
<path transform="translate(1668,972)" d="m0 0 2 2 1 10v10h-2l-2-16v-5z" fill="#E7A504"/>
<path transform="translate(1198,513)" d="m0 0 3 1-2 6-1-2h-2v5l-3 2-2-2 1-5 5-3z" fill="#A7A7CB"/>
<path transform="translate(1693,646)" d="m0 0 1 3-3 4h-4l-2 9-2 1v-10l3-2 5-1z" fill="#F0EFF5"/>
<path transform="translate(1697,621)" d="m0 0 3 1-1 4-3 5-6-1-2-2h5l2-5z" fill="#F0EFF5"/>
<path transform="translate(418,665)" d="m0 0 2 1-5 7-5 1-3-3z" fill="#DDDCE9"/>
<path transform="translate(1151,1016)" d="m0 0 1 2 1 7 1 5h-6v-5l2-8z" fill="#9C9DC6"/>
<path transform="translate(1648,562)" d="m0 0 2 3 3 9 4 2-1 3-6-5-3-5z" fill="#ECEBF2"/>
<path transform="translate(941,1016)" d="m0 0h1l2 6 3 6v2h-9v-1l5-1-3-6v-5z" fill="#8A8AC5"/>
<path transform="translate(808,1014)" d="m0 0 5 5 2 4v3l-4-1-4-7z" fill="#9898C6"/>
<path transform="translate(1265,899)" d="m0 0 9 1 2 2h-21l2-2z" fill="#F4EDF1"/>
<path transform="translate(871,1016)" d="m0 0 2 1v6h2l2 4v3h-9v-1h6l-4-8z" fill="#8D8CC5"/>
<path transform="translate(1220,1017)" d="m0 0 2 4 1 5 1 4h-6v-6h2l-1-6z" fill="#9C9DC5"/>
<path transform="translate(1638,948)" d="m0 0 2 1-6 8-3 2v-3l-2-1z" fill="#F1ECF1"/>
<path transform="translate(752,1056)" d="m0 0 2 4 4 10v3l-5-5-2-5z" fill="#D98D06"/>
<path transform="translate(796,1039)" d="m0 0h10l1 2-4 8v5l4 2-5-1-2-2 1-5 4-8h-9z" fill="#9C9DC5"/>
<path transform="translate(1736,668)" d="m0 0h2v7l-2 6h-2l-1-4z" fill="#E7E6EF"/>
<path transform="translate(1272,997)" d="m0 0h6v2h5l-3 2-15-1v-2z" fill="#D07D05"/>
<path transform="translate(430,761)" d="m0 0h3v2l-20 9 1-3z" fill="#F0B506"/>
<path transform="translate(1689,680)" d="m0 0 2 3-1 7-2 4h-3l1-5z" fill="#F0EFF5"/>
<path transform="translate(1023,685)" d="m0 0 3 3 6 8 1 4-3-1-6-8z" fill="#A1A2C8"/>
<path transform="translate(1173,1028)" d="m0 0 1 2h12l2 2v5l-1-3-2-1v-1l-11-1-1 3-3-2v-2h3z" fill="#9B9BC6"/>
<path transform="translate(681,960)" d="m0 0 4 5h-9l-2-4z" fill="#6662C7"/>
<path transform="translate(1234,1045)" d="m0 0h2l6 9 1 2-4-1-4-6-4 1 2-4z" fill="#A0A1C7"/>
<path transform="translate(823,1041)" d="m0 0h3l4 9-5-1-3-5z" fill="#9797C5"/>
<path transform="translate(1240,1030)" d="m0 0h16l2 2v5l-1-3h-2v-3h-11l-1 3-3-2z" fill="#9E9FC6"/>
<path transform="translate(1740,678)" d="m0 0 1 3-3 8-4 1 1-5 2-4z" fill="#F3F2F7"/>
<path transform="translate(497,598)" d="m0 0h3l-2 4-4 6-2-1 1-5z" fill="#E39D05"/>
<path transform="translate(987,587)" d="m0 0 2 1 2 9h-2l1 7-2-4-1-5z" fill="#6561C8"/>
<path transform="translate(1103,1028)" d="m0 0 1 2h13v4l-2-1 1-2h-12l-1 3-3-2v-2h3z" fill="#9E9FC6"/>
<path transform="translate(1251,858)" d="m0 0 4 1 2 3v3l-4 1-2-4z" fill="#A8A8CB"/>
<path transform="translate(1586,615)" d="m0 0 4 1-3 6h-3l-2-6z" fill="#504CE9"/>
<path transform="translate(1142,1031)" d="m0 0 1 2 1 5 11 1-1 3v-2h-12l-2-2v-5z" fill="#9C9DC5"/>
<path transform="translate(1545,467)" d="m0 0h2v2l-11 9-2 1 2-4 7-7z" fill="#7775C6"/>
<path transform="translate(945,1040)" d="m0 0 1 2-3 6v5l4 3-6-1-1-1 1-7z" fill="#9C9DC5"/>
<path transform="translate(1164,1045)" d="m0 0 3 1 6 10-4-1-4-6v-2l-2-1z" fill="#9C9DC5"/>
<path transform="translate(1632,471)" d="m0 0 7 6 5 5-1 3-5-5-6-7z" fill="#EAE9F1"/>
<path transform="translate(885,1045)" d="m0 0 3 1 5 8 2 2-5-1-4-6v-2l-2-1z" fill="#9C9DC5"/>
<path transform="translate(815,1045)" d="m0 0 3 1 5 8 2 2-5-1-4-7-3 1z" fill="#A1A1C7"/>
<path transform="translate(955,1044)" d="m0 0 4 4 4 6 1 2-4-1-6-10z" fill="#9C9DC5"/>
<path transform="translate(1033,1029)" d="m0 0 14 1v4l-2-1 1-2h-12v2h-3v-3z" fill="#9C9DC5"/>
<path transform="translate(422,666)" d="m0 0 2 1-1 3-1 5-3 3-1-2 2-8z" fill="#E8E6EF"/>
<path transform="translate(1153,1042)" d="m0 0 1 2-2 4v5l3 3-5-1-1-1 1-7z" fill="#9C9DC5"/>
<path transform="translate(1094,1045)" d="m0 0 3 1 5 8 2 2-5-1z" fill="#9C9DC5"/>
<path transform="translate(1025,1044)" d="m0 0 4 5 3 5 2 2-4-1-6-9z" fill="#9C9DC5"/>
<path transform="translate(803,1015)" d="m0 0 1 2 1 11-4-5-1-5z" fill="#9494C5"/>
<path transform="translate(762,989)" d="m0 0m-1 1v3l-6 7-2 2 1-7z" fill="#F5C00C"/>
<path transform="translate(387,775)" d="m0 0 4 4h4l-1 3-3 1-4-2z" fill="#ECAD04"/>
<path transform="translate(1688,637)" d="m0 0h5l1 5-2 2v-2l-4-2z" fill="#E1E0EC"/>
<path transform="translate(1195,572)" d="m0 0 2 1-1 11-2 2v-11z" fill="#8685C6"/>
<path transform="translate(1013,1043)" d="m0 0 1 2-2 7 4 4-5-1-2-4z" fill="#9C9DC5"/>
<path transform="translate(873,1044)" d="m0 0 1 2-1 7 4 3-6-1-1-1 1-7z" fill="#9C9DC5"/>
<path transform="translate(406,669)" d="m0 0 1 3-9 4-4-1z" fill="#5855E1"/>
<path transform="translate(1597,455)" d="m0 0 3 1v9h-2l-1-3z" fill="#F2F1F6"/>
</svg>
