<?xml version="1.0" encoding="UTF-8"?>
<svg version="1.1" viewBox="0 0 2048 2048" width="1280" height="1280" xmlns="http://www.w3.org/2000/svg">
<path transform="translate(0,116)" d="m0 0h2048v1816h-2048z" fill="#FDFDFD"/>
<path transform="translate(895,454)" d="m0 0h15v3l59 1 174 2 18 1 20 4v-2l3-1 1-4h2v18l-6 42 92 1 26 1 18 2 22 8 15 8 13 10 17 17 10 16 7 16 3 14 2 18 4 74 6 139 1 8 5-1 1 1 5-6 6-2 5-4 5-2-1 5v7l2 3 2-5 8-7 16-7 12-4 26-1 6 4 2 5 5 4 5 11v15l-2 6h-3l-1 4-6 1 2 3-14 8-8 5-12 6-2 6-7-2-4-3v-3l-4-1 2 4 7 6 1 3h-3v2h-2l-4 4-3 2-7 2-5 4h-11l-18 10-2 1-1 38-4-2-7-7v-3h-3l-7-9 2 4 12 16v3l6 1 7 6v3l4 1 10 11 9 11 14 15 7 8 12 13 9 10 14 15 11 11 8 10 11 13 14 19 12 17 19 29 7 11v3h2l1 5h2v3h2l7 15v2h2l2 4v5l-10 4-17 6h-2v3l-10 2-11 4-9 4-17 5h-2v3l-21 6-41 14-31 10-22 6-10 2 6 27 2 7v11h10v-2l20-6 15-4 18-4 24-7 31-11 10-3 12-5 46-17 19-8 14-6h2l1-3 5 1 10 19 12 23 12 22 15 29 7 14 12 28 7 23 2 9v36l-7 21-3 6h-2l-2 5-9 11-12 12-11 8-21 12-13 6-15 6-23 7-27 5h-42l-19-4-16-7-11-7-7-7-6-5-10-13-1-4h-2l-2-7h-2l-4-8-6-17-3-7-2 7-3 15-6 17-12 21-13 15-8 8-15 10-5 2v2l-11 5-11 2-5 2-21 3-23 1-61 1h-448l-53-1-31-1-21-6-23-13-13-11-13-13-12-18-8-18-5-16-1-6v-93l2-65 3-70 2-71 1-14v-41l-4 22-6 35-14 76-4-2-3-5-5-5-11-8-12-6-12-3-22-7-23-5-25-3-1-1h-45l-20 5h-4l2-9 16-34 12-23 6-10 6-11 6-10 6-11 6-10 7-11 6-9 1-3h2l2-5 10-14 1-3h2l2-4 1-3h2l2-4 1-3h2l3-9h2l2-7h2l2-6 11-16 5-10 4-10 4-9 6-11 13-16 12-10 21-12 16-8 15-7 2-13 1-33 1-13 2-56 5-113 4-63 2-15 5-14 6-12 10-14 11-12 8-7 14-9 19-9 13-4 18-2 25-1 120-1-3-20-3-22v-16z" fill="#E2DEE7"/>
<path transform="translate(1409,864)" d="m0 0 4 1 4 10 6 16 12 18 2 4 8 7-5 4-19 10-1 38-4-2-7-7v-3h-3l-7-9 2 4 12 16v3l6 1 7 6v3l4 1 10 11 9 11 14 15 7 8 12 13 9 10 14 15 11 11 8 10 11 13 14 19 12 17 19 29 7 11v3h2l1 5h2v3h2l7 15v2h2l2 4v5l-10 4-17 6h-2v3l-10 2-11 4-9 4-17 5h-2v3l-21 6-41 14-31 10-22 6-10 2 6 27 2 7v11h10v-2l20-6 15-4 18-4 24-7 31-11 10-3 12-5 46-17 19-8 14-6h2l1-3 5 1 10 19 12 23 12 22 15 29 7 14 12 28 7 23 2 9v36l-7 21-3 6h-2l-2 5-9 11-12 12-11 8-21 12-13 6-15 6-23 7-27 5h-42l-19-4-16-7-11-7-7-7-6-5-10-13-1-4h-2l-2-7h-2l-4-8-6-17-3-7-2 7-3 15-6 17-12 21-13 15-8 8-15 10-5 2v2l-11 5-11 2-5 2-21 3-23 1-61 1h-448l-53-1-31-1-21-6-23-13-13-11-13-13-12-18-8-18-5-16-1-6v-93l2-65 3-70 2-71 2-38 1-34 1-2 1-66 1-24 1-8 15-10 20-7 11-3h7v45l-6 180-6 201v73l5 5 5 2 9 1 46 1h592l43-1 7-1h8l2-4 3-3 1-14-5 1-3-4v-2l-7-1-3-4-7-20-6-10-6-15-4-17-8-13-7-18v-2l-8-2-8-18-8-3v-10h-5l-5-4-6-2-7-6-13-5-18-10-4-1-32-2-29-1-23-2-185-1-77-1-5-5v-12l6-7 18-1h149l2-5-120-1-48-1-6-4-1-13 5-6 3-2 35-1 103-1 6-1-5-1-29-2-111-2-4-3v-16l4-4 60-1 158-1 1-2 13-2 18-2 18-6h2l1-4v-23l-3-10-6-6-12-4-11-1-61-2-38-1-112-1-27-1-1-3h-2l-3-5v-8l4-6 1-1 67-1 26-1 4-5h2v-2h-51l-45-1-7-5v-12l6-5 82-1 34-1 5-7-119-1-6-4-1-2v-9l4-5 22-1 123-1 1 3-11 6-1 2 23-13 3-5 25-14 27-15 6-4h2l-4-9v-14l1-2h-169l-47-1-5-5v-10l5-5 4-1h223v-5l4-1v-3h-193l-38-1-5-6v-8l8-7 239-2 3-5h-242l-5-6v-13l3-3 62-1 205-1 20-9 35-11 14-3h32l26 9 23 10-1 3-11 7-10 6-1 2 25-13 21-12 43-24z" fill="#9C86DA"/>
<path transform="translate(674,987)" d="m0 0h7v45l-6 180-6 201v73l5 5 5 2 9 1 46 1h592l43-1 7-1h8l2-4 4-4v-53l-5-165-1-30v-42l3 1 17 62 4 17v5l-5 3 1 10 5 22 1 3v11h10v-2l20-6 15-4 18-4 24-7 31-11 10-3 12-5 46-17 19-8 14-6h2l1-3 5 1 10 19 12 23 12 22 15 29 7 14 12 28 7 23 2 9v36l-7 21-3 6h-2l-2 5-9 11-12 12-11 8-21 12-13 6-15 6-23 7-27 5h-42l-19-4-16-7-11-7-7-7-6-5-10-13-1-4h-2l-2-7h-2l-4-8-6-17-3-7-2 7-3 15-6 17-12 21-13 15-8 8-15 10-5 2v2l-11 5-11 2-5 2-21 3-23 1-61 1h-448l-53-1-31-1-21-6-23-13-13-11-13-13-12-18-8-18-5-16-1-6v-93l2-65 3-70 2-71 2-38 1-34 1-2 1-66 1-24 1-8 15-10 20-7z" fill="#9C86DB"/>
<path transform="translate(1392,949)" d="m0 0h5l16 22v3l6 1 7 6v3l4 1 10 11 9 11 14 15 7 8 12 13 9 10 14 15 11 11 8 10 11 13 14 19 12 17 19 29 7 11v3h2l1 5h2v3h2l7 15v2h2l2 4v5l-10 4-17 6h-2v3l-10 2-11 4-9 4-17 5h-2v3l-21 6-41 14-31 10-22 6-10 2 2-3 3-1-1-9-8-32-12-43-2-1v32l-9-1-10-9-5-4-1-3-8-4-7-7-20-14-2-4-3-2-7-5-1-3-13-7-7-6-24-12-1-5 4-5v-10l-5-5-185-1 4-5 7-4 42-1 130-1 5-2 1-7-25-3-19-4-13-4h-76l1-3 13-7 39-2-6-13v-13l5-10 9-7 12-5 4-1 15 1h21l9-7 32-17 10-5 1 13 4-2 10-12 8-11 24-11h2l2-5 25-14 13-8z" fill="#D6AD98"/>
<path transform="translate(425,1248)" d="m0 0h33l24 2 40 7 28 8 18 7 18 11 5 4 8 7 5 10v52l-2 43-4 41-6 26-4 12-7 15h-2l-2 6-12 14-9 9-20 11-18 6-12 2-15 1h-27l-18-2-28-6-21-7-22-12-16-13-12-12-1-5h-2l-2-7h-2l-7-21-2-10v-28l5-25 9-30 16-43 14-36 7-19 8-9 10-5 10-2z" fill="#AB99DF"/>
<path transform="translate(1632,1253)" d="m0 0 5 1 10 19 12 23 12 22 15 29 7 14 12 28 7 23 2 9v36l-7 21-3 6h-2l-2 5-9 11-12 12-11 8-21 12-13 6-15 6-23 7-27 5h-42l-19-4-16-7-11-7-7-7-6-5-10-13-1-4h-2l-2-7h-2l-4-8-6-17-4-10 1-11-15-62-10-46-3-9-2 1-1-12 3-2v3h10v-2l20-6 15-4 18-4 24-7 31-11 10-3 12-5 46-17 19-8 14-6h2z" fill="#9C86DB"/>
<path transform="translate(908,1142)" d="m0 0h358l1 4 6 2 20 10 8 7 11 6 2 4 9 5 1 4 11 8 6 4 10 9 9 5 3 5 9 7 3 3 9 2 1 10 5 162 1 33v53h-1v-13l-5 1-3-4v-2l-7-1-3-4-7-20-6-10-6-15-4-17-8-13-7-18v-2l-8-2-8-18-8-3v-10h-5l-5-4-6-2-7-6-13-5-18-10-4-1-32-2-29-1-23-2-185-1-77-1-5-5v-12l6-7 18-1h149l2-5-120-1-48-1-6-4-1-13 5-6 3-2 35-1 103-1 6-1-5-1-29-2-111-2-4-3v-16l4-4 60-1 158-1 1-2 13-2 18-2 18-6h2l1-4v-23l-3-10-6-6-12-4-11-1-61-2-38-1-112-1-27-1z" fill="#CDBECF"/>
<path transform="translate(632,896)" d="m0 0h2v23l-1 1-2 12-3 4 9-2 24-6 22-3 15 3 9 8 6 13v16l-3 6-5 5-6 1-18 10-14 3-16 5-10 4-12 8-1 8-1 24-1 66-1 2-1 34h-1l-1-17-4 22-6 35-14 76-4-2-3-5-5-5-11-8-12-6-12-3-22-7-23-5-25-3-1-1h-45l-20 5h-4l2-9 16-34 12-23 6-10 6-11 6-10 6-11 6-10 7-11 6-9 1-3h2l2-5 10-14 1-3h2l2-4 1-3h2l2-4 1-3h2l3-9h2l2-7h2l2-6 11-16 5-10 4-10 4-9 6-11 13-16 12-10 21-12 16-8 15-7z" fill="#D5AD98"/>
<path transform="translate(894,456)" d="m0 0 4 1-2 4v12l3 21 4 37 1 13 2 7 1 11v31h-2l-3-9v-5l-185 1-10 1-9 6-2 22-1 1-2 63-6 169-2 75-1 8-1 1-22 3-17 4-13 4-4-1 1-2h2l2-14 1-1v-56l1-13 2-56 5-113 4-63 2-15 5-14 6-12 10-14 11-12 8-7 14-9 19-9 13-4 18-2 25-1 120-1-3-20-3-22v-16z" fill="#AB99DF"/>
<path transform="translate(1632,1253)" d="m0 0 5 1 10 19 12 23 12 22 15 29 7 14 12 28 7 23 2 9v36l-7 21-3 6h-2l-2 5-9 11-12 12-11 8-21 12-13 6-15 6-23 7-27 5h-42l-19-4-16-7-11-7-7-7-6-5-10-13-1-4h-2l-2-7h-2l-4-8 1-2 12 2 14 7 14 10 11 7 14 6 10 3h49l25-4 26-6 30-11 4-2h4l2-4 14-8 8-10 5-8 5-19-1-17-4-9v-2l-10-3-1-3-21 1-8 1h-11l-24-6-4-3-12-3-4-4v-3h-3v-4h-7l-5-2v-3l-9-3-5-8-7-10-3-6v-2h-2l-7-18-5-8-3-12-3-3-6-16 1-5 7-9 2-2-1-2 60-22 13-6 13-5 6-2z" fill="#AB99DF"/>
<path transform="translate(1247,885)" d="m0 0h32l26 9 23 10-1 3-11 7-10 6-2 2-6 1-23 11-17 1-29 11-28 10h-2l-2 5-7 12-9 12-8 7-20 12-21 10h-4l-3-6v-14l1-2h-169l-47-1-5-5v-10l5-5 4-1h223v-5l4-1v-3h-193l-38-1-5-6v-8l8-7 239-2 3-5h-242l-5-6v-13l3-3 62-1 205-1 20-9 35-11z" fill="#D5AE9B"/>
<path transform="translate(1185,458)" d="m0 0h2v18l-6 42 92 1 26 1 18 2 22 8 15 8 13 10 17 17 10 16 7 16 3 14 2 18 4 74 6 139v13l-7 8-25 13-7 5h-4l-3-64-3-87-4-103-2-35-2-7-7-4-8-1-169-1-2 11-2 4-1-1 1-18 6-68 6-43z" fill="#AB99DF"/>
<path transform="translate(674,987)" d="m0 0h7v45l-6 180-6 201v73l5 5 5 2 9 1 46 1h592l43-1 7-1h8l2-4 4-4v-53l-5-165-1-30v-42l3 1 17 62 4 17v5l-5 3 1 10 5 22 1 3v8l-2 3 1 17 19 85 5 19v24l-3 12-9 21-12 19-9 9-14 11-19 10-16 6-3 1h-8l-1-4 1-3v-14l-5-15-6-7-2-10v-2l-11-2h-50l-526-1-56-1-12-3-5-4-3-7v-79l6-203 3-92 1-45 1-6-1-32-3-6v-2h-8l-19 7-4 7-6 25-3 34-5 93-4 46h-1v-58l2-38 1-34 1-2 1-66 1-24 1-8 15-10 20-7z" fill="#846CB3"/>
<path transform="translate(1392,949)" d="m0 0h5l16 22v3l6 1 7 6v3l4 1 10 11 9 11 14 15 7 8 12 13 9 10 14 15 11 11 8 10 11 13 14 19 12 17 19 29 7 11v3h2l1 5h2v3h2l7 15v2h2l2 4v5l-15 6-3-1 8-5-3-10-13-21-13-17-7-9v-4l-4-1-4-5v-2l-4-2-10-13-7-7-6-5-7-8-9-8-11-6-10-4-14 1h-11l-47-13-36-9-37-7-28-4-21-2-27-2-27-5-33-8-5-4 2-6 8-4h2v-2l15 1h21l9-7 32-17 10-5 1 13 4-2 10-12 8-11 24-11h2l2-5 25-14 13-8z" fill="#D8BDB6"/>
<path transform="translate(421,1249)" d="m0 0h9l-7 11-6 18-8 21-6 18-1 6v35l3 15 6 16 12 14 11 11 19 14 11 9 10 6 10 8 1 3 6 3 8 10-1 7-7 6-5 7-11 3-26 2h-41l-28-5-20-7-12-5-1-3-6-3-2-3-4-2-4-17v-28l5-25 9-30 16-43 14-36 7-19 8-9 10-5 10-2z" fill="#9C86DA"/>
<path transform="translate(475,1250)" d="m0 0h7l40 7 28 8 18 7v9l2 6v88l-3 16-2 9-7 10-8 7-6 1h-8l-4-2-18-3-20-7-16-9-5-3-3-2-2-4-11-16-4-11-2-8v-29l3-16 8-30 4-12v-6l8-8z" fill="#BCA9DD"/>
<path transform="translate(1039,1057)" d="m0 0h15l1 3-11 6-5 6v7l4 18 11 16v2l5 2 7 4 26-1h173l6 6v10l-5 6h-358l-4-4-1-2v-8l4-6 1-1 67-1 26-1 4-5h2v-2h-51l-45-1-7-5v-12l6-5 82-1 34-1 5-7-119-1-6-4-1-2v-9l4-5 22-1z" fill="#9186AF"/>
<path transform="translate(894,456)" d="m0 0 4 1-2 4v12l3 21 4 37 1 13 2 7 1 11v31h-2l-3-9v-5l-185 1-10 1-9 6-2 22-1 1-2 63-6 169-2 75-1 8-1 1-22 3-17 4-13 4-4-1 1-2h2l2-14 1-1v-56l1-13 2-56 5-113 4-63 2-15 5-14 6-12 10-10 15-16 9-6 4-1v2l-3 3-6 8-9 10-11 18-5 15-2 14-4 63-6 140-1 32v36l1 3 16 3 3-10 5-43 3-62 2-52 3-71 1-27 3-25 5-16 7-8 4-3 10-3 128-1 21-3 6-3 1-5v-30l11-10 16-1-2-20-3-22v-16z" fill="#9C86DB"/>
<path transform="translate(1601,1215)" d="m0 0h6l5 8 7 14 4 4 5 7 3 2 6 2v2h-5l-3 3-26 11-18 7-43 16-10 4-27 9-11 4-25 7-14 3-15 4-17 5h-3v2h-10l-1-11-5-19-2-11v-4l10-3 25-7 49-16 33-11 8-1v-3l24-8 8-4 10-3h7v-3l14-5z" fill="#E2DEE7"/>
<path transform="translate(804,1047)" d="m0 0h68l8 5 5 5 2 5v58l-1 11-9 12-8 7-11 2h-53l-11-6-7-8-1-3v-60l1-10 4-9 8-7z" fill="#A7DAC9"/>
<path transform="translate(803,1201)" d="m0 0h60l1 4 13 8 3 1v-4l3 1 1 3v69l-4 9-8 6-9 3h-62l-8-4-10-10v-57l1-14 7-9 7-5z" fill="#9085AF"/>
<path transform="translate(1273,1100)" d="m0 0h20l20 3 8 7 8 6 9 3 5 3 27 27 4 6 10 33v39l-9-1-10-9-5-4-1-3-8-4-7-7-20-14-2-4-3-2-7-5-1-3-13-7-7-6-24-12-1-5 4-5v-10l-5-5-185-1 4-5 7-4 42-1 130-1 5-2 3-2z" fill="#D7BDB6"/>
<path transform="translate(806,898)" d="m0 0h68l11 7 3 5v68l-5 10-11 8-4 1h-61l-8-3-6-6-3-7v-62l2-8 4-6 7-6z" fill="#A7DAC9"/>
<path transform="translate(809,756)" d="m0 0h68l9 7 4 5 1 2v51l-1 14-7 10-9 6-4 1-18 1h-41l-10-4-7-9-2-7v-37l1-19 3-11 5-6z" fill="#A7DAC9"/>
<path transform="translate(1384,1195)" d="m0 0 3 1 17 62 4 17v5l-5 3 1 10 5 22 1 3v8l-2 3 1 17 19 85 1 5v7l-5 1-4-5-7-19-3-4-4 6-4 22-1 18-3 15-3 10-6 8-9 4-8 1-34 1h-639l-15-1-10-4-6-6v-2h3l3 3 5 2 9 1 46 1h592l43-1 7-1h8l2-4 4-4v-53l-5-165-1-30z" fill="#7559A4"/>
<path transform="translate(907,1275)" d="m0 0h361l6 6v11l-5 5-3 1h-357l-6-4-2-3v-9z" fill="#9186AF"/>
<path transform="translate(946,1242)" d="m0 0h320l7 5 1 2v10l-5 4-1 2h-361l-5-4-1-11 5-6 2-1z" fill="#9186AF"/>
<path transform="translate(968,1210)" d="m0 0h299l5 5v12l-7 6h-354l-6-4-1-1v-13l4-4z" fill="#7254A3"/>
<path transform="translate(435,1211)" d="m0 0h45l1 1 25 3 30 7 21 7 8 2 15 8 10 8 4 5 1 3 4 2 4 10v17l-1 16-2-3-7-8-15-10-10-6-24-9-27-7-35-6-24-2h-33l-15 2-12 3-5 2 2-10 5-17 8-8 3-4z" fill="#E2DEE7"/>
<path transform="translate(913,824)" d="m0 0h342l7 5 1 2-1 10-5 4h-345l-6-6v-8z" fill="#9186AF"/>
<path transform="translate(912,795)" d="m0 0h344l6 5v10l-5 5h-343l-6-4-2-4 2-9z" fill="#9186AF"/>
<path transform="translate(1500,827)" d="m0 0h9l6 4 2 5 5 4 5 11v15l-2 6h-3l-1 4-6 1 2 3-14 8-8 5-12 6-2 6-7-2-4-3v-3l-4-1 2 4 7 6 1 3h-3v2h-2l-4 4-3 2-7 2-5 4-9-1v-3l-8-7-5-9-9-14-8-23-4-1-2 1 2-4 6-7 2-5 5-1 1 1 5-6 6-2 5-4 5-2-1 5v7l2 3 2-5 8-7 16-7 12-4z" fill="#E2DEE7"/>
<path transform="translate(913,766)" d="m0 0h344l4 3 1 10-5 6h-343l-5-5v-10z" fill="#9287AF"/>
<path transform="translate(1382,954)" d="m0 0 5 1 3 5v4h3v3l5 2 12 10 6 4 5 12 1 9-12 4-5 4-10 5-11 15-9 5-4 9h-7l-10-6-16-7-11-9-4-4-4-1h-13l-17 5-6 3-22 2h-9v-3l15-9 27-14 6-3 1 13 4-2 10-12 8-11 24-11h2l2-5 25-14z" fill="#D5AD98"/>
<path transform="translate(632,896)" d="m0 0h2v23l-1 1-2 12-3 4 9-2 24-6 22-3 15 3 9 8 6 13v16l-3 6h-1l-1-13-23 1-30 4-13 1-10-1-6-4v-3h-3v-3h-8l-19 8-14 9-17 13-13 12-10 13-9 12-7 9-10 12-13 18-10 15-5 6h-2l-1-4h2l2-5 10-14 1-3h2l2-4 1-3h2l2-4 1-3h2l3-9h2l2-7h2l2-6 11-16 5-10 4-10 4-9 6-11 13-16 12-10 21-12 16-8 15-7z" fill="#E3CDC4"/>
<path transform="translate(551,1128)" d="m0 0h10l1 1 1 39 3 39 1 15-5 8-8-1-25-8-23-5-25-3-1-2h3v-10l3-7 6-10 12-16 10-12 3-1 4-6 8-8 12-9z" fill="#D8BDB6"/>
<path transform="translate(1392,949)" d="m0 0h5l16 22v3l6 1 7 6v3l4 1 10 11 9 11 14 15 7 8 12 13 9 10 14 15 11 11 8 10 11 13 14 19 12 17 19 29 7 11-1 3-4-2-12-16-22-28-3-4v-3l-4-1-8-10-4-4-10-7-13-12-10-9-14-10-41-18-15-11-8-6-1-1v-15l3-8 4-4 1-12-6-12-1-3h-2l-4-4-8-6-9-7-2-1v-3h-3l-3-9-3-1 5-4z" fill="#E3CDC4"/>
<path transform="translate(911,940)" d="m0 0h239l-1 6-8 15h-193l-38-1-5-6v-8z" fill="#9186AF"/>
<path transform="translate(914,970)" d="m0 0h221l-3 9-5 12-1 1h-169l-47-1-5-5v-10l5-5z" fill="#9186AF"/>
<path transform="translate(911,910)" d="m0 0h264l-6 7-8 9-2 3h-217l-32-1-2-2v-13z" fill="#9186AF"/>
<path transform="translate(1247,885)" d="m0 0h32l26 9 23 10-1 3-11 7-10 6-2 2-7 1-10-4-33-9h-9l-13 2-49 12-15 4-10 8-4-1 1-3h-242l-3-4h249l6-8 9-9-201-1v-1l205-1 20-9 35-11z" fill="#D7BDB8"/>
<path transform="translate(1039,1057)" d="m0 0h15l1 3-11 6-5 6v7l4 18 11 16v2l5 2 9 6v1l-6 1h-31l-8-5-6-17-1-2 15-21-119-1-6-4-1-2v-9l4-5 22-1z" fill="#9186AF"/>
<path transform="translate(1367,1569)" d="m0 0 2 1-5 3-16 7-15 4-10 1-22 1-63 1h-427l-62-1-20-1-20-3-17-6-3-3 10 2 11 3 31 1 53 1h448l61-1 23-1 21-3 8-3 10-2z" fill="#E2DEE7"/>
<path transform="translate(1088,1242)" d="m0 0h178l7 5 1 2v10l-7 5-183-2-1-5-1-12 7-1z" fill="#7254A3"/>
<path transform="translate(968,1210)" d="m0 0h104l5 1v9l-9 9-2 1-52 1 251 1v1h-354l-6-4-1-1v-13l4-4z" fill="#9085AF"/>
<path transform="translate(1155,1275)" d="m0 0h113l6 6v11l-4 4h-174v-2h2v-12l-6-4v-2z" fill="#7254A3"/>
<path transform="translate(354,1494)" d="m0 0 10 4 16 8 27 9 31 6 19 1h38l18-2 24-5 13-5 22-12 4 1-6 8-7 8-7 7-20 11-18 6-12 2-15 1h-27l-18-2-28-6-21-7-22-12-16-13-6-7z" fill="#BCA9DD"/>
<path transform="translate(635,1528)" d="m0 0 5 1 8 10 9 9 10 7 13 8 18 7 15 3 11 1 25 1 42 1h438l57-1 33-1 26-3 18-6 16-8 12-8 16-15 4 1-14 15-10 8-11 7h-2v2l-11 5-11 2-5 2-21 3-23 1-61 1h-448l-53-1-31-1-21-6-23-13-13-11-13-13z" fill="#AE9CDF"/>
<path transform="translate(972,766)" d="m0 0h266l10 1-1 3-9 3-11 1h-29l-3 2-8 1-39 1-15 2-3 1-13-1h-10l-5 1h-12l-8-1-12 1-13-1v-2l-10 1-4 2-37-2-14-2-13-2-22-3 1-3 8-1 3 1v-2z" fill="#9C92B6"/>
<path transform="translate(1201,1120)" d="m0 0h64l6 6v10l-5 6h-155l1-5 11-8 3-6 11-1 55-1z" fill="#7255A3"/>
<path transform="translate(1191,1088)" d="m0 0h21l21 6 25 4 11 1 1 3-2 6-5 2h-167v-2l5-2 14-8 17-9z" fill="#7255A3"/>
<path transform="translate(992,1088)" d="m0 0h33l-8 14 4 10 4 9 5 2v2l-3 1h-26l-1-3 2-5 3-4h2v-2h-51l-45-1-7-5v-12l6-5z" fill="#9186AF"/>
<path transform="translate(589,1287)" d="m0 0 5 2 7 8 3 7v52l-2 43-4 41-6 26-3 6-6 4-8 1-3-2 1-13 9-25 5-29 1-27z" fill="#9C86DB"/>
<path transform="translate(1300,921)" d="m0 0h3l1 5-23 13-30 16-23 13-29 16-23 13-29 16-12 7-23 13-17 9-23 13-4-1 1-4 25-14 27-15 6-4h2v-2l19-10 12-6 14-9 8-7 12-18 5-9 41-15 18-7 17-1z" fill="#AA98DF"/>
<path transform="translate(1247,885)" d="m0 0h32l26 9 23 10-1 3-11 7-7 4-4-1-23-10-23-7h-23l-25 6-23 6-12 3-7 4-2-1 7-7-201-1v-1l205-1 20-9 35-11z" fill="#E2CBC1"/>
<path transform="translate(651,600)" d="m0 0h2v13l-2 28-4 81-4 95-2 57-1 10v49l-9 4-4-1 1-2h2l2-14 1-1v-56l1-13 2-56 5-113 4-63 2-15 3-1z" fill="#8770B5"/>
<path transform="translate(1698,1486)" d="m0 0 3 2-11 13-11 11-11 8-21 12-13 6-15 6-23 7-27 5h-42l-19-4-16-7-11-7-7-7-6-5-5-7 3-1 17 12 22 11 16 4h39l25-4 24-5 31-11 26-13 9-6 11-9z" fill="#BCA9DD"/>
<path transform="translate(948,795)" d="m0 0h210l-6 8-7 2-24 1-17 2-34 1-25-1-7-1-26-1-8-1-2 1h-15l-12-1-8-5-1-1h-15l-1-3z" fill="#9C92B6"/>
<path transform="translate(1397,602)" d="m0 0 3 1v2h2l2 6 2 18 4 74 6 139v13l-4 5-5-1-1-11-2-63-4-102-3-53z" fill="#9D88DB"/>
<path transform="translate(1346,972)" d="m0 0h5l-2 5-24 11h-2l-2 4-10 13-8 9-3-1-1-12-34 18-11 7h-2l-1 3-2 1h-21l-11-2 5-5 32-17 52-28 29-1z" fill="#7356A4"/>
<path transform="translate(1263,1109)" d="m0 0h3l2 6v5h-188l4-5 7-4 42-1z" fill="#CDBED0"/>
<path transform="translate(858,1069)" d="m0 0h8l6 6v8l-13 12-13 10-16 12h-10l-9-7-6-9 1-9 7-5 9 1 3 3 7-2 13-11z" fill="#E3DFE8"/>
<path transform="translate(621,945)" d="m0 0h29l7 1h50l5 6v16l-3 3-1-13-23 1-30 4-13 1-10-1-6-4v-3h-3v-3h-8l-19 8-14 9-9 7-3-2 11-9 15-10 9-5z" fill="#D8BDB6"/>
<path transform="translate(1185,519)" d="m0 0h88l26 1 18 2 22 8 15 8 13 10 15 15-1 3h-3v2l-4-2-12-11-12-9-16-9-18-6-22-3-83-2-21-1z" fill="#BCA9DD"/>
<path transform="translate(860,919)" d="m0 0h8l5 5 1 7-9 10-11 9-20 15-4 1h-7l-10-9-4-5-1-8 5-6 6-2 5 1 4 3 7-2 16-13z" fill="#E3DFE8"/>
<path transform="translate(862,776)" d="m0 0 10 1 4 4 1 5-4 7-14 11-19 14-6 4h-9l-7-6-6-9v-9l7-5h7l3 3h6l16-12z" fill="#E3DFE8"/>
<path transform="translate(1363,599)" d="m0 0h2l1 7v12l1 2 1 13h-1v8l1 1 1 12-1 3v8l2 6v9l-1 2v10l2 7 6 105 3 60 1 14-4 3h-4l-3-64-3-87-4-103z" fill="#9E89DB"/>
<path transform="translate(683,925)" d="m0 0 15 3 9 8 6 13v16h-1l-1-13-4-5h-50l-7-1h-29l-16 6h-3v-2l16-8 8-3h3v-2l15-5 23-5z" fill="#E3CCC3"/>
<path transform="translate(913,824)" d="m0 0h342v1l-140 1-23 1h-14l1 4 3 1-2 2-9 2-18 1h-11l-1-4-31 1-10 2h-20l-8-3v-2l4-1 2-5h-65z" fill="#A397BF"/>
<path transform="translate(674,987)" d="m0 0h7v45l-1 5-2-1-3-23-5-8h-13l-10 4-3 2-10 30-4 25-1 10h-2v-61l1-8 15-10 20-7z" fill="#7356A4"/>
<path transform="translate(624,1050)" d="m0 0h2v55l-1 2-1 34h-1l-1-17-4 22-6 35-14 76-4-2-1-4 2-7 10-61 8-62v-9l6-27 2-19 2-9z" fill="#D8BDB6"/>
<path transform="translate(1632,1253)" d="m0 0 5 1 10 19 12 23 12 22 15 29 7 14 12 28 7 23 2 9v36h-1l-1-25-3-9-5-19-10-24-8-17-13-23-15-29-12-22-8-16-7-15-2-2h2z" fill="#BCA9DD"/>
<path transform="translate(1399,1251)" d="m0 0h3l6 24v5l-5 3 1 10 5 22 1 3v8l-2 3 1 17 1 7-3 8h2l1 2v7l-3 2-2-1-1-4v-10l-3-1-6-20-1-8v-65l4-11z" fill="#846CB3"/>
<path transform="translate(1035,1074)" d="m0 0 3 3 3 12 3 9 10 15v2l5 2 9 6v1l-6 1h-31l-8-5-6-17-1-2 10-14z" fill="#D5AD99"/>
<path transform="translate(1255,935)" d="m0 0h18v2l-6 3h-2l-1 3-28 15-19 11-1-4 2-5-10 1-2 6-6 12-9 5h-4l-1 4-8 4h-5l5-5 7-8 10-16 4-7 41-15z" fill="#9085AF"/>
<path transform="translate(1185,458)" d="m0 0h2v18l-5 36-1 12 4 2 1 39 3 6 6 2 48 1 24 1v1l-92 2-1 9-2 7-2-1 1-18 6-68 6-43z" fill="#9C86DA"/>
<path transform="translate(1051,1276)" d="m0 0h41v2l5 2 2 2v10l-1 2h-2v2h173v1h-226v-3l11-5v-7z" fill="#846CB2"/>
<path transform="translate(782,1232)" d="m0 0h1v55l4 2 3 5 8 5 3 1h62l11-4 5-3-2 6-7 7-5 3-9 2h-59l-10-5-4-5-3-15v-43z" fill="#CDBED0"/>
<path transform="translate(1251,1028)" d="m0 0h33l12 1 6 4 2 2-1 7-2 1h-53l-21-2-9-3-1-2 2-5 2-1 28-1z" fill="#E3CCC2"/>
<path transform="translate(694,595)" d="m0 0h1v15l-2 63-6 169-2 75-1 8-5-1 1-6 2-58 7-192 3-64z" fill="#866EB5"/>
<path transform="translate(1024,1210)" d="m0 0h48l5 1v9l-9 9-2 1h-48l8-14 2-4z" fill="#846CB3"/>
<path transform="translate(552,966)" d="m0 0 4 1 1 11-8 11 6-3 11-9 4 1-5 5-13 12-10 13-9 12-7 9-10 12-13 18-10 15-5 6h-2l-1-4h2l2-5 10-14 1-3h2l2-4 1-3h2l2-4 1-3h2l3-9h2l2-7h2l2-6 11-16 5-10 4-10 4-9 4-6z" fill="#D8BEB7"/>
<path transform="translate(1016,418)" d="m0 0 10 1 1 4 4-2 3 3v3h3l-1 7-7 6-3 10-1 1-13 1h-11l-4-1 2-14 5-9 5-6z" fill="#E3DFE8"/>
<path transform="translate(619,1300)" d="m0 0h2v67l-2 114h-3l-2-3v-93l2-65 2-17z" fill="#8B74B8"/>
<path transform="translate(1041,1242)" d="m0 0h47l4 2-3 1h-7l2 6v11h-44l-2-4v-14z" fill="#836BB2"/>
<path transform="translate(1263,1109)" d="m0 0h3l2 6v5h-79l3-2 20-3v-1l-83-1-23-1v-1l27-1z" fill="#BAA7DE"/>
<path transform="translate(619,1016)" d="m0 0h3v50l-2 19-6 27-5 12h-2v-25l4-30 4-47z" fill="#9084AF"/>
<path transform="translate(640,1192)" d="m0 0 4 3 1 8 7 2 1 12v10l-5 18-2 4-2 1-1 11-2 4-3-1-1-2-1-13-1-1v-35l2-12z" fill="#AB99E0"/>
<path transform="translate(632,896)" d="m0 0h2v23l-1 1-2 12-3 4 1 3-20 8-7 4h-2v-11l5-13 12-9 5-5 8-4z" fill="#D5AD98"/>
<path transform="translate(346,1404)" d="m0 0 7 2 5 9 3 11v18l-4 3h-9l-5-3-4-7v-22l6-10z" fill="#846CB3"/>
<path transform="translate(1132,1089)" d="m0 0h34v2l-16 2-13 9-8 5-3 1 137 1v1h-167v-2l5-2 14-8z" fill="#846CB2"/>
<path transform="translate(1116,1120)" d="m0 0h85v1l-9 1-66 1-2 6-12 9-1 3h-41l-1-2 17-2 17-9 8-7z" fill="#846CB3"/>
<path transform="translate(787,1132)" d="m0 0 5 5 9 6h74l-2 4-4 3-11 2h-53l-11-6-7-8z" fill="#CDBFCF"/>
<path transform="translate(894,456)" d="m0 0 4 1-2 4v12l3 21 4 37 1 13 2 7 1 11v31h-2l-2-6v-13l-6-55-2-5-5-38v-16z" fill="#866FB2"/>
<path transform="translate(1168,1078)" d="m0 0h13l13 1 11 8v1l-14 1h-55l1-3 13-7z" fill="#CDBED0"/>
<path transform="translate(1409,1337)" d="m0 0 2 2 4 13 10 46 14 58-1 12-2 9h-1l-1-7-1-18-5-16-18-82-2-8z" fill="#A997DF"/>
<path transform="translate(1254,941)" d="m0 0h10v2l-28 15-19 11-1-4 2-5-10 1-2 6-6 12-9 5h-5l6-8 9-15 24-8z" fill="#7355A4"/>
<path transform="translate(1185,458)" d="m0 0h2v18l-6 43-6 58-2 13-2 4-1-1 1-18 6-68 6-43z" fill="#8974B4"/>
<path transform="translate(889,519)" d="m0 0h6l3 27 2 26v6l-11-1-3-2 3-5v-19l-2-30z" fill="#846CB3"/>
<path transform="translate(1346,972)" d="m0 0h5l-2 5-21 10-14 1-24 5-6 2h-5l-1-2 28-15 29-1z" fill="#846CB2"/>
<path transform="translate(619,1016)" d="m0 0h3v23l-1 1-4 41-3 9h-2l-1-11v-10l4-47z" fill="#7457A4"/>
<path transform="translate(529,1203)" d="m0 0 7 2 4 6-1 5h2v6l-5 1-30-7-7-1 3-2 13-5 6-3z" fill="#E4CDC3"/>
<path transform="translate(776,519)" d="m0 0h95v1l-28 2-93 2-22 3-11 3-2-2 18-6 18-2z" fill="#BCA9DD"/>
<path transform="translate(803,1201)" d="m0 0h60l1 4 6 4-2 1-3-1-64-2-5-3 2-2z" fill="#9C92B6"/>
<path transform="translate(624,1050)" d="m0 0h2v55l-1 2-1 34h-1l-1-17-1 6-1-4h-2l1-41 2-19 2-9z" fill="#E1CDC8"/>
<path transform="translate(785,1215)" d="m0 0h3l1 66 6 10v1h-7l-5-5v-57l1-14z" fill="#775CA5"/>
<path transform="translate(617,915)" d="m0 0 2 1-5 5-8 6-5 13v12l-8 3-4-6-3-8 2-6 10-9 1-2 16-8z" fill="#D8BEB7"/>
<path transform="translate(1129,1015)" d="m0 0 1 3h4v3l-32 17-21 12-9 5-4-1 1-4 25-14 27-15 6-4h2z" fill="#BBA8DD"/>
<path transform="translate(1015,1103)" d="m0 0h3l6 17 6 3v2l-3 1h-26l-1-3 2-5 9-10z" fill="#7355A3"/>
<path transform="translate(1449,903)" d="m0 0h5l11 8 2 2-3 4-7 2-5 4-9-1v-3l-8-7v-2l4-2 6 1 8 5-7-7v-2z" fill="#E3CFC8"/>
<path transform="translate(792,983)" d="m0 0 8 6 3 2 6 1 65 1-2 3-4 1h-61l-8-3-6-6z" fill="#CEBFD0"/>
<path transform="translate(1363,599)" d="m0 0h2l1 7v12l1 2 1 13h-1v8l1 1 1 12-1 3v8l2 6v9l-1 2-2 27h-1l-3-82z" fill="#A490DB"/>
<path transform="translate(1179,1063)" d="m0 0 5 1 6 13v1h-34l4-5z" fill="#7558A5"/>
<path transform="translate(1300,921)" d="m0 0h3l1 5-23 13-15 8-3-1 1-4 3-3 3-2h3v-2h-15v-1l17-1z" fill="#BCA9DD"/>
<path transform="translate(897,456)" d="m0 0 4 1-1 2v23l3 21 4 46v13h-1l-2-16-1-2-4-40-3-25-1-6v-12z" fill="#CCBDD1"/>
<path transform="translate(1132,1089)" d="m0 0h34v1l-24 1-16 9-14 7-1 1h-11l4-4 26-14z" fill="#9287AF"/>
<path transform="translate(1011,421)" d="m0 0h5l-2 7-4 6-2 6-2 11h-9l2-14 5-9 5-6z" fill="#CDBED1"/>
<path transform="translate(892,520)" d="m0 0 3 1 2 14 2 24v18l-5-1v-16l-2-24z" fill="#7356A4"/>
<path transform="translate(1086,1114)" d="m0 0h24l8 1 3 3v2h-41l4-5z" fill="#E2DEE7"/>
<path transform="translate(896,517)" d="m0 0 2 2 6 55v8l-2 2-3-12-4-47v-7z" fill="#9B85DA"/>
<path transform="translate(805,1200)" d="m0 0h65l9 6 2 4-1 4-5-1-12-8v-4h-58z" fill="#C2B0D9"/>
<path transform="translate(1409,939)" d="m0 0 2 1v14l-2 6h-3l-7-9-3-4v-2z" fill="#AB99DF"/>
<path transform="translate(1389,950)" d="m0 0h2l1 6 10 11 5 5 5 4 3 6-5-2-13-11-4-2v-3h-3l-3-9-3-1z" fill="#D7BDB6"/>
<path transform="translate(701,975)" d="m0 0 3 2-10 7h-2l-2 5-4 6-2 1-2 12h-1v-22z" fill="#CEBECE"/>
<path transform="translate(624,1050)" d="m0 0h2v55h-1l-2-24-2-4v-11l2-9z" fill="#D4BEBF"/>
<path transform="translate(1449,903)" d="m0 0h5l11 8 2 2-2 3h-9l-8-7-2-4z" fill="#E3CDC3"/>
<path transform="translate(905,551)" d="m0 0h1l1 11v31h-2l-2-6v-13l-1-16 2 1z" fill="#8772B3"/>
<path transform="translate(1212,960)" d="m0 0h6l-2 7-8 7-5 1-1-2 6-12z" fill="#D5AF9F"/>
<path transform="translate(1006,426)" d="m0 0h1l-1 8-3 16h-5l1-13 5-9z" fill="#9489B1"/>
<path transform="translate(1172,564)" d="m0 0h1l1 5h1l-1 18-2 7-2-1 1-18z" fill="#8C7BB2"/>
<path transform="translate(940,825)" d="m0 0h32l-4 2v4l-5-1-2-2-21-2z" fill="#9C92B6"/>
<path transform="translate(904,1228)" d="m0 0 7 4 51 1v1h-54l-4-3z" fill="#CCBDD1"/>
<path transform="translate(1346,972)" d="m0 0h5l-2 5-7 3-3-1 1-4z" fill="#9186AF"/>
<path transform="translate(1460,897)" d="m0 0 5 1 1 7 1 2-4-2-6-4v-3z" fill="#E4CDC3"/>
<path transform="translate(870,1210)" d="m0 0 10 4v-4l3 1-1 4h-2v3l-5-1z" fill="#9C92B6"/>
<path transform="translate(632,896)" d="m0 0h2v23h-1l-1-10h-1v-9z" fill="#D4BEC1"/>
<path transform="translate(1363,599)" d="m0 0h2l1 7v9l-2 3v-5h-1z" fill="#9C86DB"/>
<path transform="translate(1051,1061)" d="m0 0 3 1-4 3-8 4 2-4z" fill="#DCD5E1"/>
</svg>
